<?xml version="1.0" standalone="no"?>
<!DOCTYPE svg PUBLIC "-//W3C//DTD SVG 20010904//EN"
 "http://www.w3.org/TR/2001/REC-SVG-20010904/DTD/svg10.dtd">
<svg version="1.0" xmlns="http://www.w3.org/2000/svg"
 width="700.000000pt" height="700.000000pt" viewBox="0 0 700.000000 700.000000"
 preserveAspectRatio="xMidYMid meet">
<metadata>
Created by potrace 1.11, written by Peter Selinger 2001-2013
</metadata>
<g transform="translate(0.000000,700.000000) scale(0.100000,-0.100000)"
fill="#000000" stroke="none">
<path d="M3373 6765 c-13 -9 -23 -13 -23 -8 0 4 -4 4 -8 -2 -14 -20 -109 -71
-124 -67 -5 1 -8 -3 -8 -8 0 -6 -12 -16 -27 -23 -16 -6 -37 -20 -47 -29 -10
-10 -23 -15 -28 -12 -4 3 -8 0 -8 -6 0 -6 -4 -9 -9 -6 -5 4 -11 2 -13 -2 -3
-8 -167 -107 -178 -107 -3 0 -19 -10 -36 -22 -17 -12 -34 -20 -38 -16 -3 3 -6
1 -6 -5 0 -7 -7 -12 -15 -12 -8 0 -15 -3 -15 -7 0 -5 -18 -17 -40 -27 -22 -10
-47 -26 -57 -36 -10 -9 -24 -15 -31 -12 -6 2 -12 -2 -12 -9 0 -7 -3 -9 -6 -6
-4 4 -25 -7 -47 -23 -23 -17 -44 -30 -49 -30 -4 0 -27 -13 -50 -29 -24 -16
-46 -27 -50 -25 -5 3 -8 1 -8 -3 0 -5 -17 -17 -37 -28 -21 -10 -46 -26 -55
-34 -10 -8 -18 -10 -18 -5 0 5 -4 4 -8 -2 -7 -11 -46 -34 -94 -56 -16 -7 -28
-16 -28 -20 0 -4 -6 -8 -14 -8 -7 0 -19 -7 -26 -15 -7 -8 -16 -12 -21 -9 -5 3
-9 1 -9 -5 0 -6 -11 -13 -25 -17 -14 -3 -25 -10 -25 -16 0 -5 -4 -6 -10 -3 -5
3 -10 2 -10 -4 0 -6 -11 -13 -25 -17 -14 -3 -25 -11 -25 -17 0 -6 -3 -8 -6 -4
-4 3 -22 -5 -40 -20 -19 -14 -34 -22 -34 -19 0 4 -16 -5 -35 -20 -19 -14 -35
-22 -35 -18 0 5 -4 5 -8 -1 -9 -13 -39 -32 -79 -50 -18 -9 -33 -20 -33 -27 0
-6 -3 -8 -7 -5 -3 4 -11 3 -17 -2 -6 -5 -29 -19 -51 -32 -22 -12 -58 -33 -80
-46 -22 -13 -52 -29 -67 -35 -16 -7 -28 -16 -28 -20 0 -4 -5 -8 -11 -8 -6 0
-24 -9 -40 -21 -16 -11 -29 -17 -29 -12 0 4 -4 4 -8 -2 -4 -5 -16 -15 -27 -21
-56 -31 -71 -40 -77 -49 -4 -5 -8 -6 -8 -2 0 4 -16 -4 -35 -19 -19 -14 -35
-23 -35 -18 0 4 -10 -2 -23 -14 -13 -12 -27 -19 -30 -15 -4 3 -7 1 -7 -5 0 -6
-14 -13 -30 -17 -17 -4 -30 -12 -30 -20 0 -7 -11 -16 -25 -19 -13 -3 -44 -20
-69 -36 -24 -17 -47 -30 -51 -30 -3 0 -13 -7 -22 -15 -8 -8 -19 -13 -24 -10
-5 4 -9 1 -9 -4 0 -6 -6 -11 -13 -11 -7 0 -31 -13 -54 -30 -22 -16 -43 -27
-47 -23 -3 3 -6 1 -6 -6 0 -7 -4 -10 -9 -7 -4 3 -16 -3 -26 -14 -10 -11 -22
-17 -26 -14 -5 3 -9 1 -9 -3 0 -5 -12 -14 -27 -21 -16 -7 -46 -23 -68 -35
l-40 -23 0 -1638 0 -1638 26 -19 c14 -10 29 -16 33 -12 3 3 6 2 6 -4 0 -6 11
-14 24 -17 14 -3 31 -12 38 -19 7 -7 24 -18 38 -25 35 -17 64 -35 71 -45 3 -5
8 -8 10 -6 6 3 118 -61 125 -72 3 -5 10 -7 15 -4 5 4 9 2 9 -2 0 -5 20 -17 45
-28 25 -11 45 -23 45 -27 0 -5 7 -8 15 -8 8 0 15 -4 15 -10 0 -5 4 -10 8 -10
8 0 75 -36 150 -80 17 -11 32 -18 32 -15 0 2 12 -7 26 -20 14 -13 29 -24 33
-23 6 2 28 -10 106 -57 22 -13 52 -29 67 -36 16 -6 28 -14 28 -18 0 -3 15 -12
33 -20 17 -8 34 -17 37 -20 6 -7 40 -27 105 -60 28 -14 51 -29 53 -33 2 -5 10
-8 18 -8 8 0 14 -5 14 -11 0 -5 4 -8 8 -5 5 3 19 -4 30 -15 12 -11 22 -16 22
-12 0 4 4 4 8 -2 4 -5 28 -21 55 -35 26 -13 47 -28 47 -32 0 -5 3 -7 8 -6 11
2 46 -14 54 -26 4 -6 11 -11 15 -11 10 -1 76 -36 83 -44 3 -4 16 -12 30 -19
58 -28 136 -75 142 -86 4 -6 8 -7 8 -3 0 5 13 -1 29 -12 15 -11 31 -18 35 -14
3 3 6 2 6 -4 0 -9 39 -32 50 -29 5 1 22 -12 57 -44 9 -8 17 -13 17 -12 2 8 56
-22 56 -30 0 -5 5 -6 10 -3 6 3 10 2 10 -3 0 -6 11 -13 24 -16 14 -3 31 -12
38 -19 7 -6 35 -23 61 -37 26 -13 47 -28 47 -32 0 -5 7 -8 16 -8 8 0 30 -11
47 -24 18 -13 43 -27 55 -31 13 -4 33 -16 43 -26 10 -10 28 -19 39 -19 11 0
20 -4 20 -10 0 -5 7 -10 15 -10 9 0 18 -7 21 -15 4 -8 10 -12 15 -9 5 3 9 0 9
-5 0 -6 5 -11 11 -11 7 0 35 -14 63 -32 28 -17 76 -45 106 -61 30 -17 58 -35
61 -40 4 -5 12 -6 19 -2 8 5 11 4 7 -2 -4 -6 5 -14 20 -18 15 -3 32 -13 37
-21 6 -8 27 -17 46 -20 27 -4 41 -1 59 15 14 12 35 24 48 27 13 4 23 11 23 17
0 6 3 8 6 4 4 -3 22 5 40 20 19 14 34 21 34 17 0 -5 4 -4 8 1 8 12 36 30 72
47 14 7 28 17 32 23 4 5 8 6 8 2 0 -5 12 1 26 12 15 12 33 21 40 21 8 0 14 5
14 10 0 6 6 10 14 10 8 0 16 5 18 11 2 5 10 11 18 13 26 5 70 29 70 38 0 5 5
6 10 3 6 -3 10 -1 10 4 0 6 5 11 11 11 6 0 29 13 52 29 23 16 47 30 52 31 6 2
27 14 47 26 21 13 42 24 47 24 5 0 14 7 21 15 7 9 15 13 17 11 3 -2 13 3 24
12 11 9 23 17 27 17 4 0 21 10 38 22 17 12 34 20 38 16 3 -3 6 0 6 7 0 7 3 10
6 7 4 -4 20 5 36 18 16 14 34 25 39 25 6 0 26 12 44 26 19 14 37 26 42 26 18
1 58 23 66 35 5 8 12 11 18 8 5 -4 9 -2 9 2 0 5 12 14 28 20 34 15 65 35 74
48 4 6 8 6 8 2 0 -4 15 3 33 16 17 14 38 22 46 19 8 -3 11 0 7 7 -4 6 -1 11 9
11 8 0 18 7 21 15 4 8 14 15 24 15 9 0 28 8 41 19 13 10 34 21 47 25 12 4 22
12 22 18 0 6 3 9 6 5 4 -3 22 5 40 20 19 14 34 22 34 18 0 -4 15 4 34 18 18
15 36 23 40 20 3 -4 6 -1 6 5 0 7 7 12 15 12 8 0 15 5 15 11 0 5 4 8 9 5 5 -3
14 1 21 9 7 8 19 15 26 15 8 0 14 4 14 8 0 5 6 9 13 9 7 0 29 10 48 23 72 49
87 59 120 74 42 19 72 38 81 51 4 5 10 6 14 2 4 -4 14 2 21 13 8 11 19 18 24
15 5 -4 9 -2 9 4 0 6 11 13 25 17 13 3 29 12 36 20 6 8 15 11 20 8 5 -3 9 0 9
5 0 6 7 11 15 11 8 0 15 5 15 11 0 5 4 8 9 5 5 -3 14 1 21 9 7 8 19 15 26 15
8 0 14 3 14 8 0 4 15 13 33 21 17 8 34 17 37 20 7 9 53 29 63 27 5 0 13 7 18
17 6 9 15 17 20 17 6 0 29 13 52 28 23 15 53 33 67 40 14 6 43 23 65 37 22 14
52 30 68 36 15 6 27 15 27 20 0 5 3 8 8 6 4 -1 19 8 34 19 l27 21 -2 1634 -2
1634 -37 18 c-21 10 -38 22 -38 27 0 5 -13 11 -30 15 -16 4 -30 11 -30 16 0 6
-4 7 -10 4 -5 -3 -10 -2 -10 3 0 5 -18 17 -40 27 -22 10 -40 23 -40 28 0 6 -3
7 -6 4 -4 -3 -18 3 -32 13 -13 11 -31 20 -38 20 -8 0 -14 5 -14 11 0 5 -4 8
-9 5 -5 -3 -14 1 -21 9 -7 8 -19 15 -26 15 -8 0 -14 5 -14 10 0 6 -7 10 -15
10 -7 0 -19 8 -24 18 -6 9 -11 14 -11 10 0 -4 -15 1 -32 11 -74 42 -113 65
-118 71 -7 9 -43 24 -52 22 -5 -1 -8 3 -8 9 0 5 -4 7 -10 4 -5 -3 -10 -2 -10
3 0 5 -8 13 -17 16 -32 11 -94 50 -118 73 -7 7 -16 9 -19 5 -4 -3 -10 -2 -14
3 -7 10 -36 28 -84 53 -16 7 -28 18 -28 23 0 5 -3 8 -7 7 -5 -1 -19 4 -33 12
-14 8 -30 15 -35 16 -14 2 -109 66 -113 76 -2 4 -10 4 -18 1 -8 -3 -14 -1 -14
5 0 6 -12 15 -27 22 -41 17 -93 46 -118 67 -12 10 -28 19 -36 21 -8 2 -31 14
-51 28 -21 13 -38 21 -38 18 0 -4 -9 3 -19 15 -11 12 -21 22 -23 21 -4 -2 -62
23 -68 30 -3 3 -22 14 -43 25 -21 11 -46 27 -55 36 -9 8 -20 16 -24 17 -40 13
-80 35 -84 47 -3 7 -11 12 -19 9 -7 -3 -19 1 -27 8 -7 7 -23 18 -33 24 -11 6
-31 17 -45 25 -14 8 -28 19 -32 24 -4 6 -8 6 -8 2 0 -4 -16 4 -35 19 -19 14
-35 23 -35 19 0 -5 -8 -1 -17 7 -10 9 -39 27 -64 41 -76 42 -93 51 -107 65 -7
6 -20 12 -27 12 -8 0 -18 8 -24 17 -5 10 -13 15 -17 11 -4 -4 -19 1 -34 12
-16 11 -33 20 -39 20 -6 0 -11 5 -11 11 0 5 -5 7 -10 4 -6 -3 -13 0 -15 8 -3
7 -21 20 -40 27 -19 8 -35 18 -35 22 0 5 -4 6 -10 3 -5 -3 -10 -1 -10 5 0 6
-4 8 -10 5 -5 -3 -10 -1 -10 4 0 6 -7 11 -15 11 -8 0 -15 5 -15 11 0 5 -4 7
-10 4 -5 -3 -10 -2 -10 2 0 5 -28 24 -62 41 -112 58 -153 82 -164 97 -6 8 -14
12 -18 8 -4 -4 -10 -2 -15 5 -12 20 -64 25 -88 7z"/>
</g>
</svg>
